<svg xmlns="http://www.w3.org/2000/svg" xmlns:xlink="http://www.w3.org/1999/xlink" version="1.1" x="0px" y="0px" viewBox="0 0 100 125" style="enable-background:new 0 0 100 100;" xml:space="preserve"><path d="M15.18848,55.06641l-1.17969,6.8418c-0.06445,0.375,0.08887,0.75391,0.39648,0.97754  c0.30566,0.22559,0.71387,0.25391,1.05273,0.07812l6.18262-3.23242l6.18262,3.23242  c0.14648,0.07715,0.30566,0.11426,0.46387,0.11426c0.20801,0,0.41504-0.06445,0.58887-0.19238  c0.30762-0.22363,0.46094-0.60254,0.39648-0.97754l-1.17969-6.8418l4.99902-4.8457c0.27344-0.26465,0.37207-0.66309,0.25488-1.02539  c-0.11719-0.36328-0.43066-0.62793-0.80859-0.68164l-6.91211-1l-3.08984-6.22754c-0.33789-0.68164-1.45312-0.68164-1.79102,0  l-3.08984,6.22754l-6.91211,1c-0.37695,0.05371-0.69043,0.31836-0.80762,0.68164c-0.11719,0.3623-0.01855,0.75977,0.25488,1.02539  L15.18848,55.06641z M18.46094,49.41797c0.3252-0.04688,0.60645-0.25,0.75195-0.54492l2.42773-4.89258l2.42773,4.89258  c0.14551,0.29492,0.42676,0.49805,0.75293,0.54492l5.41699,0.7832l-3.91699,3.79688c-0.2373,0.22949-0.3457,0.5625-0.28906,0.8877  l0.92578,5.36914l-4.85352-2.53809c-0.14551-0.07617-0.30469-0.11426-0.46387-0.11426s-0.31836,0.03809-0.46387,0.11426  l-4.85352,2.53809l0.92578-5.36914c0.05664-0.3252-0.05176-0.6582-0.28906-0.8877l-3.91602-3.79688L18.46094,49.41797z"/><path d="M89.03027,19.12598l-6.91211-1l-3.08984-6.22754c-0.16895-0.34082-0.51562-0.55566-0.89551-0.55566  s-0.72656,0.21484-0.89551,0.55566l-3.09082,6.22754l-6.91211,1c-0.37695,0.05371-0.69043,0.31836-0.80762,0.68164  c-0.11719,0.3623-0.01855,0.75977,0.25488,1.02539l4.99805,4.8457L70.5,32.52051c-0.06445,0.375,0.08887,0.75391,0.39648,0.97754  c0.30469,0.22461,0.71387,0.25391,1.05176,0.07812l6.18457-3.23242l6.18262,3.23242  c0.14648,0.07715,0.30566,0.11426,0.46387,0.11426c0.20801,0,0.41504-0.06445,0.58887-0.19238  c0.30762-0.22363,0.46094-0.60254,0.39648-0.97754l-1.17969-6.8418l4.99805-4.8457c0.27344-0.26562,0.37207-0.66309,0.25488-1.02539  C89.7207,19.44434,89.40723,19.17969,89.03027,19.12598z M82.81348,24.61035c-0.2373,0.22949-0.3457,0.5625-0.28906,0.8877  l0.92578,5.36914l-4.85352-2.53809c-0.29102-0.15234-0.6377-0.15234-0.92676,0l-4.85547,2.53809l0.92578-5.36914  c0.05664-0.3252-0.05176-0.6582-0.28906-0.8877l-3.91602-3.79688l5.41699-0.7832c0.3252-0.04688,0.60645-0.25,0.75195-0.54492  l2.42871-4.89258l2.42773,4.89258c0.14551,0.29492,0.42676,0.49805,0.75195,0.54492l5.41699,0.7832L82.81348,24.61035z"/><path d="M67.11035,61.9082l-1.92676-11.17676l8.16504-7.91699c0.27344-0.26562,0.37207-0.66309,0.25488-1.02637  c-0.11719-0.3623-0.43066-0.62695-0.80859-0.68066l-11.28809-1.63184l-5.04688-10.17188c-0.33789-0.68164-1.45312-0.68164-1.79102,0  l-5.04688,10.17188l-11.28711,1.63184c-0.37793,0.05371-0.69141,0.31836-0.80859,0.68066  c-0.11719,0.36328-0.01855,0.76074,0.25488,1.02637l8.16504,7.91699L44.01855,61.9082  c-0.06445,0.375,0.08887,0.75391,0.39648,0.97754c0.30566,0.22559,0.71289,0.25391,1.05273,0.07812l10.09668-5.2793l10.09668,5.2793  c0.14648,0.07617,0.30566,0.11426,0.46387,0.11426c0.20801,0,0.41504-0.06445,0.58887-0.19141  C67.02148,62.66211,67.1748,62.2832,67.11035,61.9082z M56.02832,55.66992c-0.14551-0.07617-0.30469-0.11426-0.46387-0.11426  s-0.31836,0.03809-0.46387,0.11426l-8.76758,4.58496l1.67383-9.7041c0.05664-0.3252-0.05176-0.6582-0.28906-0.8877l-7.08301-6.86816  l9.79199-1.41504c0.32617-0.04688,0.60742-0.25,0.75293-0.54492l4.38477-8.83691l4.38477,8.83691  c0.14551,0.29492,0.42676,0.49805,0.75293,0.54492l9.79297,1.41504l-7.08301,6.86816c-0.2373,0.22949-0.3457,0.5625-0.28906,0.8877  l1.67285,9.7041L56.02832,55.66992z"/><path d="M58.79199,68.62012h-2.22754v-2.19727c0-0.55273-0.44727-1-1-1s-1,0.44727-1,1v2.19727h-2.22656c-0.55273,0-1,0.44727-1,1  s0.44727,1,1,1h2.22656v2.19824c0,0.55273,0.44727,1,1,1s1-0.44727,1-1v-2.19824h2.22754c0.55273,0,1-0.44727,1-1  S59.34473,68.62012,58.79199,68.62012z"/><path d="M56.17285,22.56934c0.55273,0,1-0.44727,1-1v-2.19727h2.22656c0.55273,0,1-0.44727,1-1s-0.44727-1-1-1h-2.22656v-2.19824  c0-0.55273-0.44727-1-1-1s-1,0.44727-1,1v2.19824h-2.22656c-0.55273,0-1,0.44727-1,1s0.44727,1,1,1h2.22656v2.19727  C55.17285,22.12207,55.62012,22.56934,56.17285,22.56934z"/><path d="M41.35938,33.35352c2.85742,0,5.18262-2.30762,5.18262-5.14453s-2.3252-5.14551-5.18262-5.14551  s-5.18262,2.30859-5.18262,5.14551S38.50195,33.35352,41.35938,33.35352z M41.35938,25.06348  c1.75488,0,3.18262,1.41113,3.18262,3.14551s-1.42773,3.14453-3.18262,3.14453s-3.18262-1.41016-3.18262-3.14453  S39.60449,25.06348,41.35938,25.06348z"/><path d="M79.63867,62.63867c3.25977,0,5.91211-2.63184,5.91211-5.86719s-2.65234-5.86719-5.91211-5.86719  s-5.91113,2.63184-5.91113,5.86719S76.37891,62.63867,79.63867,62.63867z M79.63867,52.9043  c2.15723,0,3.91211,1.73438,3.91211,3.86719s-1.75488,3.86719-3.91211,3.86719c-2.15625,0-3.91113-1.73438-3.91113-3.86719  S77.48242,52.9043,79.63867,52.9043z"/><path d="M49.90527,78.24512c-3.25977,0-5.91113,2.63184-5.91113,5.86719s2.65137,5.86719,5.91113,5.86719  s5.91113-2.63184,5.91113-5.86719S53.16504,78.24512,49.90527,78.24512z M49.90527,87.97949  c-2.15625,0-3.91113-1.73438-3.91113-3.86719s1.75488-3.86719,3.91113-3.86719s3.91113,1.73438,3.91113,3.86719  S52.06152,87.97949,49.90527,87.97949z"/><path d="M86.86719,78.61816l-2.43359-1.33105c-2.25977-1.2373-4.1084-3.08496-5.34375-5.34375l-1.33008-2.43262  c-0.1748-0.32129-0.51172-0.52051-0.87695-0.52051s-0.70215,0.19922-0.87695,0.51953l-1.33105,2.43359  c-1.23633,2.25977-3.08398,4.10742-5.34473,5.34375l-2.43262,1.33105c-0.32031,0.1748-0.51953,0.51172-0.51953,0.87695  s0.19922,0.70215,0.51953,0.87695l2.43359,1.33105c2.25977,1.23633,4.10742,3.08398,5.34375,5.34473l1.33105,2.43262  C76.18066,89.80078,76.51758,90,76.88281,90s0.70215-0.19922,0.87695-0.52051l1.33008-2.43262  c1.23535-2.25879,3.08398-4.10645,5.34375-5.34375l2.43359-1.33105c0.32129-0.1748,0.52051-0.51172,0.52051-0.87695  S87.18848,78.79297,86.86719,78.61816z M83.47461,79.94922c-2.59766,1.41992-4.71973,3.54297-6.13867,6.13867l-0.45312,0.82812  l-0.4541-0.82812c-1.41895-2.59668-3.54199-4.71973-6.1377-6.13867l-0.83008-0.4541l0.8291-0.4541  c2.59668-1.41895,4.71973-3.54199,6.13867-6.1377l0.4541-0.8291l0.45312,0.82812c1.41895,2.5957,3.54102,4.71875,6.13867,6.13867  l0.8291,0.4541L83.47461,79.94922z"/><path d="M29.96777,18.29688c-2.25977-1.2373-4.1084-3.08496-5.34375-5.34375l-1.33008-2.43262  C23.11914,10.19922,22.78223,10,22.41699,10s-0.70215,0.19922-0.87695,0.51953l-1.33105,2.43359  c-1.23633,2.25977-3.08398,4.10742-5.34473,5.34375l-2.43262,1.33105c-0.32031,0.1748-0.51953,0.51172-0.51953,0.87695  s0.19922,0.70215,0.51953,0.87695l2.43359,1.33105c2.25977,1.23633,4.10742,3.08398,5.34375,5.34473l1.33105,2.43262  c0.1748,0.32031,0.51172,0.51953,0.87695,0.51953s0.70215-0.19922,0.87695-0.52051l1.33008-2.43262  c1.23535-2.25879,3.08398-4.10645,5.34375-5.34375l2.43359-1.33105c0.32129-0.1748,0.52051-0.51172,0.52051-0.87695  s-0.19922-0.70215-0.52051-0.87695L29.96777,18.29688z M29.00879,20.95898c-2.59766,1.41992-4.71973,3.54297-6.13867,6.13867  l-0.45312,0.82812l-0.4541-0.82812c-1.41895-2.59668-3.54199-4.71973-6.1377-6.13867l-0.83008-0.4541l0.8291-0.4541  c2.59668-1.41895,4.71973-3.54199,6.13867-6.1377l0.4541-0.8291l0.45312,0.82812c1.41895,2.5957,3.54102,4.71875,6.13867,6.13867  l0.8291,0.4541L29.00879,20.95898z"/><path d="M34.3125,75.84863L31.39062,74.25c-2.74707-1.50293-4.99414-3.75-6.49805-6.49805l-1.59766-2.92285  c-0.17578-0.32129-0.5127-0.52051-0.87793-0.52051s-0.70215,0.19922-0.87695,0.52051l-1.59863,2.92285  c-1.50391,2.74805-3.75,4.99414-6.49805,6.49805l-2.92285,1.59863C10.19922,76.02344,10,76.36035,10,76.72559  s0.19922,0.70215,0.52051,0.87793l2.92188,1.59668c2.74902,1.50488,4.99609,3.75195,6.49902,6.5l1.59863,2.9209  c0.1748,0.32129,0.51172,0.52051,0.87695,0.52051s0.70215-0.19922,0.87695-0.52051l1.59766-2.9209  c1.50391-2.74902,3.75098-4.99609,6.49902-6.5l2.92188-1.59766c0.32129-0.1748,0.52051-0.51172,0.52051-0.87695  S34.63379,76.02344,34.3125,75.84863z M30.43066,77.44629c-3.08398,1.6875-5.60547,4.20898-7.29297,7.29395l-0.7207,1.31738  l-0.72168-1.31738c-1.68555-3.08301-4.20703-5.60547-7.29297-7.29492l-1.31836-0.71973l1.31836-0.72168  c3.08496-1.68652,5.60645-4.20801,7.29297-7.29297l0.72168-1.31836l0.7207,1.31934c1.68848,3.08496,4.21094,5.60645,7.29395,7.29199  l1.31738,0.72168L30.43066,77.44629z"/><text x="0" y="115" fill="#000000" font-size="5px" font-weight="bold" font-family="'Helvetica Neue', Helvetica, Arial-Unicode, Arial, Sans-serif">Created by Made x Made</text><text x="0" y="120" fill="#000000" font-size="5px" font-weight="bold" font-family="'Helvetica Neue', Helvetica, Arial-Unicode, Arial, Sans-serif">from the Noun Project</text></svg>